<svg xmlns="http://www.w3.org/2000/svg" viewBox="0 0 512 512">
  <rect width="512" height="512" rx="112" fill="#fbf8f7"/>
  <rect x="24" y="24" width="464" height="464" rx="96" fill="none" stroke="#eee5e9" stroke-width="8"/>
  <!-- Diament w palecie Estelio Premium -->
  <g>
    <polygon points="256,432 96,208 160,128 352,128 416,208" fill="#e8568f"/>
    <polygon points="256,432 96,208 176,208" fill="#d94b83"/>
    <polygon points="256,432 416,208 336,208" fill="#d94b83"/>
    <polygon points="176,208 256,432 336,208" fill="#ef7ba7"/>
    <polygon points="160,128 176,208 96,208" fill="#ef7ba7"/>
    <polygon points="352,128 416,208 336,208" fill="#ef7ba7"/>
    <polygon points="160,128 256,128 176,208" fill="#f7a6c4"/>
    <polygon points="256,128 352,128 336,208" fill="#f7a6c4"/>
    <polygon points="256,128 336,208 176,208" fill="#fdeef4"/>
  </g>
</svg>
